<svg width="28" height="28" viewBox="0 0 28 28" fill="none" xmlns="http://www.w3.org/2000/svg">
<g id="circle 1" clip-path="url(#clip0_180654_24146)">
<g id="layer1">
<g id="g3721">
<g id="Clip path group">
<mask id="mask0_180654_24146" style="mask-type:luminance" maskUnits="userSpaceOnUse" x="-1" y="0" width="29" height="28">
<g id="clipPath3513">
<path id="path3515" d="M27.9643 13.9876C27.9643 17.6916 26.4897 21.2439 23.8648 23.863C21.2399 26.4821 17.6797 27.9535 13.9675 27.9535C10.2553 27.9535 6.69519 26.4821 4.07028 23.863C1.44537 21.2439 -0.0292969 17.6916 -0.0292969 13.9876C-0.0292969 10.2836 1.44537 6.73136 4.07028 4.11225C6.69519 1.49313 10.2553 0.0217285 13.9675 0.0217285C17.6797 0.0217285 21.2399 1.49313 23.8648 4.11225C26.4897 6.73136 27.9643 10.2836 27.9643 13.9876Z" fill="white"/>
</g>
</mask>
<g mask="url(#mask0_180654_24146)">
<g id="g3239">
<path id="path18829" d="M-6.99365 21.5038H34.9834V19.3547H-6.99365V21.5038Z" fill="white"/>
<path id="path18831" d="M-6.99365 19.3547H34.9834V17.2065H-6.99365V19.3547Z" fill="#CA4638"/>
<path id="path18833" d="M-6.99365 25.7986H34.9834V23.6504H-6.99365V25.7986Z" fill="white"/>
<path id="path18835" d="M-6.99365 27.9476H34.9834V25.7986H-6.99365V27.9476Z" fill="#CA4638"/>
<path id="path18837" d="M-6.99365 23.6505H34.9834V21.5039H-6.99365V23.6505Z" fill="#CA4638"/>
<path id="path18839" d="M-6.99365 17.1051H34.9834V14.9585H-6.99365V17.1051Z" fill="white"/>
<path id="path18841" d="M-6.99365 10.7625H34.9834V8.61597H-6.99365V10.7625Z" fill="#CA4638"/>
<path id="path18843" d="M-6.99365 4.31894H34.9834V2.16992H-6.99365V4.31894Z" fill="white"/>
<g id="Group">
<path id="path18845" d="M-6.99365 6.46706H34.9834V4.31885H-6.99365V6.46706Z" fill="#CA4638"/>
<path id="path18847" d="M-6.99365 15.0601H34.9834V12.9094H-6.99365V15.0601Z" fill="#CA4638"/>
<path id="path18849" d="M-6.99365 2.17001H34.9834V0.0258789H-6.99365V2.17001Z" fill="#CA4638"/>
</g>
<path id="path18851" d="M-6.99365 8.61608H34.9834V6.46704H-6.99365V8.61608Z" fill="white"/>
<path id="path18853" d="M-6.99365 12.9095H34.9834V10.7629H-6.99365V12.9095Z" fill="white"/>
</g>
</g>
</g>
<g id="Clip path group_2">
<mask id="mask1_180654_24146" style="mask-type:luminance" maskUnits="userSpaceOnUse" x="-1" y="-1" width="29" height="29">
<g id="clipPath3603">
<path id="path3605" d="M27.9703 13.9176C27.9703 17.6212 26.4958 21.173 23.8712 23.7918C21.2466 26.4107 17.6869 27.8819 13.9752 27.8819C10.2634 27.8819 6.70368 26.4107 4.07907 23.7918C1.45447 21.173 -0.0200195 17.6212 -0.0200195 13.9176C-0.0200195 10.2141 1.45447 6.66221 4.07907 4.04341C6.70368 1.4246 10.2634 -0.0466309 13.9752 -0.0466309C17.6869 -0.0466309 21.2466 1.4246 23.8712 4.04341C26.4958 6.66221 27.9703 10.2141 27.9703 13.9176Z" fill="white"/>
</g>
</mask>
<g mask="url(#mask1_180654_24146)">
<path id="path3517" d="M-0.00732422 15.0693H13.9859V-0.0449219H-0.00732422V15.0693Z" fill="#356BA0"/>
</g>
</g>
<g id="Group_2">
<path id="path18857" d="M10.6995 1.97681L10.8042 2.30124H11.1456L10.8692 2.50163L10.9762 2.82607L10.6996 2.62548L10.4209 2.82607L10.5279 2.50163L10.2515 2.30124H10.5929L10.6995 1.97681Z" fill="white"/>
<path id="path18859" d="M10.6995 4.82642L10.8042 5.15065H11.1456L10.8692 5.35124L10.9762 5.67548L10.6996 5.4772L10.4209 5.67548L10.5279 5.35124L10.2515 5.15065H10.5929L10.6995 4.82642Z" fill="white"/>
<path id="path18861" d="M10.6995 7.677L10.8042 8.002H11.1456L10.8692 8.20183L10.9762 8.52683L10.6996 8.32626L10.4209 8.52683L10.5279 8.20183L10.2515 8.002H10.5929L10.6995 7.677Z" fill="white"/>
<path id="path18863" d="M10.6995 10.5911L10.8042 10.9176H11.1456L10.8692 11.1182L10.9762 11.4447L10.6996 11.2418L10.4209 11.4447L10.5279 11.1182L10.2515 10.9176H10.5929L10.6995 10.5911Z" fill="white"/>
<path id="path18865" d="M10.6995 13.3755L10.8042 13.7005H11.1456L10.8692 13.9026L10.9762 14.2269L10.6996 14.0247L10.4209 14.2269L10.5279 13.9026L10.2515 13.7005H10.5929L10.6995 13.3755Z" fill="white"/>
<path id="path18867" d="M8.13728 1.97681L8.24271 2.30124H8.58566L8.30831 2.50163L8.41375 2.82607L8.13737 2.62548L7.86022 2.82607L7.96534 2.50163L7.68896 2.30124H8.0319L8.13728 1.97681Z" fill="white"/>
<path id="path18869" d="M8.13728 4.82642L8.24271 5.15065H8.58566L8.30831 5.35124L8.41375 5.67548L8.13737 5.4772L7.86022 5.67548L7.96534 5.35124L7.68896 5.15065H8.0319L8.13728 4.82642Z" fill="white"/>
<path id="path18871" d="M8.13728 7.677L8.24271 8.002H8.58566L8.30831 8.20183L8.41375 8.52683L8.13737 8.32626L7.86022 8.52683L7.96534 8.20183L7.68896 8.002H8.0319L8.13728 7.677Z" fill="white"/>
<path id="path18873" d="M8.13728 10.5911L8.24271 10.9176H8.58566L8.30831 11.1182L8.41375 11.4447L8.13737 11.2418L7.86022 11.4447L7.96534 11.1182L7.68896 10.9176H8.0319L8.13728 10.5911Z" fill="white"/>
<path id="path18875" d="M8.13728 13.3755L8.24271 13.7005H8.58566L8.30831 13.9026L8.41375 14.2269L8.13737 14.0247L7.86022 14.2269L7.96534 13.9026L7.68896 13.7005H8.0319L8.13728 13.3755Z" fill="white"/>
<path id="path18879" d="M5.57724 4.82642L5.68189 5.15065H6.0233L5.74692 5.35124L5.85358 5.67548L5.57719 5.4772L5.29852 5.67548L5.40548 5.35124L5.12891 5.15065H5.46974L5.57716 4.82642" fill="white"/>
<path id="path18881" d="M5.57724 7.677L5.68189 8.002H6.0233L5.74692 8.20183L5.85358 8.52683L5.57719 8.32626L5.29852 8.52683L5.40548 8.20183L5.12891 8.002H5.46974L5.57716 7.677" fill="white"/>
<path id="path18883" d="M5.57724 10.5911L5.68189 10.9176H6.0233L5.74692 11.1182L5.85358 11.4447L5.57719 11.2418L5.29852 11.4447L5.40548 11.1182L5.12891 10.9176H5.46974L5.57716 10.5911" fill="white"/>
<path id="path18885" d="M5.57724 13.3755L5.68189 13.7005H6.0233L5.74692 13.9026L5.85358 14.2269L5.57719 14.0247L5.29852 14.2269L5.40548 13.9026L5.12891 13.7005H5.46974L5.57716 13.3755" fill="white"/>
<path id="path18891" d="M3.01557 7.677L3.12085 8.002H3.46379L3.1874 8.20183L3.29283 8.52683L3.01568 8.32626L2.7391 8.52683L2.84453 8.20183L2.56738 8.002H2.9088L3.01575 7.677" fill="white"/>
<path id="path18893" d="M3.01557 10.5911L3.12085 10.9176H3.46379L3.1874 11.1182L3.29283 11.4447L3.01568 11.2418L2.7391 11.4447L2.84453 11.1182L2.56738 10.9176H2.9088L3.01575 10.5911" fill="white"/>
<path id="path18895" d="M3.01557 13.3755L3.12085 13.7005H3.46379L3.1874 13.9026L3.29283 14.2269L3.01568 14.0247L2.7391 14.2269L2.84453 13.9026L2.56738 13.7005H2.9088L3.01575 13.3755" fill="white"/>
<path id="path18907" d="M12.0048 3.3999L12.1101 3.72645H12.4531L12.1759 3.92473L12.2813 4.25127L12.0049 4.05088L11.7276 4.25127L11.8338 3.92473L11.5566 3.72645H11.8988L12.005 3.3999" fill="white"/>
<path id="path18909" d="M12.0048 6.34351L12.1101 6.66794H12.4531L12.1759 6.86833L12.2813 7.19276L12.0049 6.99219L11.7276 7.19276L11.8338 6.86833L11.5566 6.66794H11.8988L12.005 6.34351" fill="white"/>
<path id="path18911" d="M11.9789 9.22705L12.0851 9.5513H12.4273L12.1507 9.75187L12.2562 10.0761L11.979 9.87402L11.7026 10.0761L11.8079 9.75187L11.5308 9.5513H11.8737L11.9791 9.22705" fill="white"/>
<path id="path18913" d="M11.9537 12.0759L12.0599 12.4004H12.4028L12.1249 12.6008L12.2316 12.9252L11.9537 12.7254L11.678 12.9252L11.7835 12.6008L11.5054 12.4004H11.8483L11.9537 12.0759Z" fill="white"/>
<path id="path18915" d="M9.44289 3.3999L9.54909 3.72645H9.89204L9.61412 3.92473L9.72077 4.25127L9.44287 4.05088L9.16571 4.25127L9.27267 3.92473L8.99609 3.72645H9.3375L9.44289 3.3999Z" fill="white"/>
<path id="path18917" d="M9.44289 6.34351L9.54909 6.66794H9.89204L9.61412 6.86833L9.72077 7.19276L9.44287 6.99219L9.16571 7.19276L9.27267 6.86833L8.99609 6.66794H9.3375L9.44289 6.34351Z" fill="white"/>
<path id="path18919" d="M9.41839 9.22705L9.52382 9.5513H9.86675L9.59038 9.75187L9.69565 10.0761L9.4185 9.87402L9.14213 10.0761L9.24755 9.75187L8.97021 9.5513H9.31182L9.41847 9.22705" fill="white"/>
<path id="path18921" d="M9.39287 12.0759L9.49829 12.4004H9.84047L9.56409 12.6008L9.66952 12.9252L9.39294 12.7254L9.11579 12.9252L9.22122 12.6008L8.94482 12.4004H9.28701L9.39305 12.0759" fill="white"/>
<path id="path18923" d="M6.88148 3.29956L6.98751 3.6238H7.32969L7.05331 3.82438L7.1595 4.14862L6.8816 3.94823L6.60502 4.14862L6.71122 3.82438L6.43408 3.6238H6.77625L6.88167 3.29956" fill="white"/>
<path id="path18925" d="M6.88148 6.24048L6.98751 6.56472H7.32969L7.05331 6.76683L7.1595 7.08954L6.8816 6.89126L6.60502 7.08954L6.71122 6.76683L6.43408 6.56472H6.77625L6.88167 6.24048" fill="white"/>
<path id="path18927" d="M6.85704 9.12402L6.96139 9.44826H7.30435L7.02719 9.64885L7.13338 9.97308L6.857 9.77251L6.57889 9.97308L6.68508 9.64885L6.40869 9.44826H6.75087L6.85704 9.12402Z" fill="white"/>
<path id="path18929" d="M6.83097 11.9746L6.93717 12.2996H7.27934L7.00277 12.4979L7.1082 12.8244L6.83106 12.6239L6.55467 12.8244L6.65995 12.4979L6.38281 12.2996H6.72498L6.83118 11.9746" fill="white"/>
<path id="path18933" d="M4.3215 6.21143L4.42662 6.53566H4.76899L4.49165 6.73854L4.59707 7.06278L4.32145 6.86068L4.04355 7.06278L4.1502 6.73854L3.87305 6.53566H4.21523L4.32142 6.21143" fill="white"/>
<path id="path18935" d="M4.29676 9.09497L4.40143 9.41999H4.74437L4.46722 9.62208L4.57326 9.94634L4.29688 9.74442L4.01973 9.94634L4.12501 9.62208L3.84863 9.41999H4.19004L4.29699 9.09497" fill="white"/>
<path id="path18937" d="M4.27059 11.9441L4.37678 12.2691H4.71895L4.44181 12.4712L4.54694 12.7955L4.27054 12.5933L3.99417 12.7955L4.0996 12.4712L3.82227 12.2691H4.16445L4.27059 11.9441Z" fill="white"/>
<path id="path18943" d="M1.73415 9.04541L1.84033 9.36985H2.1825L1.90536 9.57023L2.01155 9.89467L1.73422 9.6941L1.45785 9.89467L1.56327 9.57023L1.28613 9.36985H1.62907L1.73434 9.04541" fill="white"/>
<path id="path18945" d="M1.70942 11.895L1.81393 12.2193H2.15688L1.87973 12.4198L1.98592 12.7441L1.70953 12.5437L1.43143 12.7441L1.53761 12.4198L1.26123 12.2193H1.60341L1.70961 11.895" fill="white"/>
<path id="path18947" d="M13.2598 1.97681L13.3645 2.30124H13.7074L13.4311 2.50163L13.5362 2.82607L13.2598 2.62548L12.9827 2.82607L13.0881 2.50163L12.8115 2.30124H13.1537L13.2598 1.97681Z" fill="white"/>
<path id="path18949" d="M13.2598 4.82642L13.3645 5.15065H13.7074L13.4311 5.35124L13.5362 5.67548L13.2598 5.4772L12.9827 5.67548L13.0881 5.35124L12.8115 5.15065H13.1537L13.2598 4.82642Z" fill="white"/>
<path id="path18951" d="M13.2598 7.677L13.3645 8.002H13.7074L13.4311 8.20183L13.5362 8.52683L13.2598 8.32626L12.9827 8.52683L13.0881 8.20183L12.8115 8.002H13.1537L13.2598 7.677Z" fill="white"/>
<path id="path18953" d="M13.2598 10.5911L13.3645 10.9176H13.7074L13.4311 11.1182L13.5362 11.4447L13.2598 11.2418L12.9827 11.4447L13.0881 11.1182L12.8115 10.9176H13.1537L13.2598 10.5911Z" fill="white"/>
<path id="path18955" d="M13.2598 13.3755L13.3645 13.7005H13.7074L13.4311 13.9026L13.5362 14.2269L13.2598 14.0247L12.9827 14.2269L13.0881 13.9026L12.8115 13.7005H13.1537L13.2598 13.3755Z" fill="white"/>
<path id="path3711" d="M12.0048 0.681885L12.1101 1.0069H12.4531L12.1767 1.209L12.2821 1.53325L12.0049 1.33114L11.7284 1.53325L11.8338 1.209L11.5566 1.0069H11.8981L12.005 0.681885" fill="white"/>
<path id="path3713" d="M0.659126 13.3755L0.764405 13.7005H1.10735L0.830959 13.9026L0.936392 14.2269L0.659236 14.0247L0.382661 14.2269L0.488086 13.9026L0.210938 13.7005H0.552355L0.659311 13.3755" fill="white"/>
<path id="path3715" d="M0.894962 10.5911L1.00024 10.9176H1.34319L1.0668 11.1182L1.17223 11.4447L0.895072 11.2418L0.618497 11.4447L0.723922 11.1182L0.446777 10.9176H0.788192L0.895147 10.5911" fill="white"/>
<path id="path3719" d="M9.44289 0.931885L9.54909 1.25843H9.89204L9.61412 1.45671L9.72077 1.78325L9.44287 1.58286L9.16571 1.78325L9.27267 1.45671L8.99609 1.25843H9.3375L9.44289 0.931885Z" fill="white"/>
</g>
</g>
</g>
</g>
<defs>
<clipPath id="clip0_180654_24146">
<rect width="28" height="28" fill="white"/>
</clipPath>
</defs>
</svg>
