<svg width="28" height="28" viewBox="0 0 28 28" fill="none" xmlns="http://www.w3.org/2000/svg">
<g id="vietnam 1">
<g clip-path="url(#clip0_180654_24072)">
<path id="Vector" d="M21.875 0H6.125C2.74225 0 0 2.74225 0 6.125V21.875C0 25.2577 2.74225 28 6.125 28H21.875C25.2577 28 28 25.2577 28 21.875V6.125C28 2.74225 25.2577 0 21.875 0Z" fill="#FF4B55"/>
<path id="Vector_2" d="M14.2498 8.0188L15.6807 12.309L20.2031 12.344C20.4559 12.346 20.5608 12.6687 20.3574 12.8189L16.7193 15.5055L18.0834 19.8173C18.1597 20.0584 17.8852 20.2579 17.6794 20.1108L14.0002 17.481L10.3209 20.1109C10.1152 20.2579 9.84065 20.0585 9.91694 19.8174L11.2811 15.5055L7.64297 12.819C7.43954 12.6688 7.54443 12.3461 7.7973 12.3441L12.3197 12.309L13.7505 8.01885C13.8305 7.77888 14.1698 7.77888 14.2498 8.0188Z" fill="#FFE15A"/>
</g>
</g>
<defs>
<clipPath id="clip0_180654_24072">
<rect width="28" height="28" rx="14" fill="white"/>
</clipPath>
</defs>
</svg>
