<svg width="20" height="20" viewBox="0 0 20 20" fill="none" xmlns="http://www.w3.org/2000/svg">
<g id="world" clip-path="url(#clip0_180335_108938)">
<path id="Vector" d="M9.41293 9.41302V5.85205H5.71292C5.51296 6.90265 5.38927 8.09069 5.3623 9.41302H9.41293Z" fill="black"/>
<path id="Vector_2" d="M9.41273 4.6781V0.0338135C8.03886 0.376527 6.72576 1.94652 5.98242 4.6781H9.41273Z" fill="black" fill-opacity="0.85"/>
<path id="Vector_3" d="M4.1895 10.5869H0C0.0713368 11.8171 0.366193 13.0065 0.865511 14.1088H4.52126C4.32892 13.0244 4.21709 11.845 4.1895 10.5869Z" fill="black" fill-opacity="0.85"/>
<path id="Vector_4" d="M0 9.41302H4.18828C4.21309 8.14007 4.32423 6.94715 4.51848 5.85205H0.883511C0.373393 6.96526 0.0721585 8.16832 0 9.41302Z" fill="black" fill-opacity="0.85"/>
<path id="Vector_5" d="M10.5869 0.0386963V4.67809H14.007C13.7257 3.65527 13.3888 2.88571 13.0779 2.32378C12.3829 1.06754 11.5147 0.27732 10.5869 0.0386963Z" fill="black" fill-opacity="0.85"/>
<path id="Vector_6" d="M9.41261 10.5869H5.36328C5.39408 11.9561 5.52509 13.122 5.71261 14.1088H9.41265L9.41261 10.5869Z" fill="black" fill-opacity="0.85"/>
<path id="Vector_7" d="M14.105 1.75548C14.5685 2.59317 14.9413 3.57498 15.2195 4.67813H18.4801C18.0834 4.05113 17.6138 3.46302 17.0753 2.92457C15.9843 1.83347 14.6894 1.02497 13.2793 0.534302C13.5765 0.891573 13.8525 1.29909 14.105 1.75548Z" fill="black" fill-opacity="0.85"/>
<path id="Vector_8" d="M14.6364 9.41302C14.6051 8.02557 14.4709 6.84717 14.2794 5.85205H10.5869V9.41302H14.6364Z" fill="black" fill-opacity="0.85"/>
<path id="Vector_9" d="M15.2415 15.2827C14.9628 16.4095 14.5854 17.4108 14.1135 18.2621C13.8667 18.7073 13.5973 19.1056 13.3076 19.4559C14.7068 18.9642 15.9915 18.1592 17.0753 17.0754C17.6249 16.5258 18.1024 15.9243 18.5043 15.2827H15.2415Z" fill="black" fill-opacity="0.85"/>
<path id="Vector_10" d="M4.76807 4.67807C5.04583 3.56729 5.41981 2.57941 5.88622 1.73793C6.13302 1.29269 6.40244 0.894368 6.69221 0.543945C5.29302 1.03555 4.00814 1.84065 2.92431 2.92447C2.38586 3.46292 1.91629 4.05103 1.51953 4.67803L4.76807 4.67807Z" fill="black" fill-opacity="0.85"/>
<path id="Vector_11" d="M15.4717 5.85205C15.6684 6.94719 15.7828 8.13972 15.8108 9.41302H20.0001C19.928 8.16832 19.6267 6.96526 19.1166 5.85205H15.4717Z" fill="black" fill-opacity="0.85"/>
<path id="Vector_12" d="M5.8944 18.2447C5.42541 17.3971 5.04939 16.4018 4.77023 15.2827H1.49512C1.897 15.9243 2.37452 16.5258 2.92408 17.0754C4.01515 18.1665 5.30997 18.975 6.72008 19.4657C6.42291 19.1084 6.14688 18.701 5.8944 18.2447Z" fill="black" fill-opacity="0.85"/>
<path id="Vector_13" d="M10.5869 10.5869V14.1088H14.2944C14.49 13.0678 14.6111 11.8929 14.6377 10.5869H10.5869Z" fill="black" fill-opacity="0.85"/>
<path id="Vector_14" d="M19.9998 10.5869H15.8116C15.7871 11.8448 15.6783 13.0244 15.4883 14.1088H19.1342C19.6335 13.0065 19.9284 11.8171 19.9998 10.5869Z" fill="black" fill-opacity="0.85"/>
<path id="Vector_15" d="M10.5869 15.2827V19.9662C11.9675 19.6219 13.2868 18.0387 14.0282 15.2827H10.5869Z" fill="black" fill-opacity="0.85"/>
<path id="Vector_16" d="M9.4132 19.9613V15.2827H5.98242C6.26589 16.3252 6.60739 17.1073 6.92224 17.6763C7.6173 18.9325 8.48543 19.7226 9.4132 19.9613Z" fill="black" fill-opacity="0.85"/>
</g>
<defs>
<clipPath id="clip0_180335_108938">
<rect width="20" height="20" fill="white"/>
</clipPath>
</defs>
</svg>
